# xmcd CD database file generated by Grip 3.4.3
# 
# Track frame offsets:
#       150
#       26372
#       58890
#       72965
#       102930
#       138657
#       168342
#       210937
# 
# Disc length: 3251 seconds
# 
# Revision: 3
# Processed by: cddbd v1.5.2PL0 Copyright (c) Steve Scherf et al.
# Submitted via: Grip 3.4.3
# 
DISCID=6c0cb108
DTITLE=Cherubini Quartett, Christian Zacharias - Schumann - Piano Quinte
DTITLE=t, String Quartets - CD 2
DYEAR=2002
DGENRE=Classical
TTITLE0=String Quartet No. 2 in F Op. 41,2  - I. Allegro vivace
TTITLE1=II. Andante, quasi variazioni
TTITLE2=III. Scherzo, Presto
TTITLE3=IV. Allegro molto vivace
TTITLE4=String Quartet No. 3 in A Op. 41,3 - I. Andante espressivo - Alle
TTITLE4=gro molto moderato
TTITLE5=II. Assai agitato - Un poco adagio - Tempo risoluto
TTITLE6=III. Adagio molto
TTITLE7=IV. Allegro molto vivace
EXTD=YEAR: 2002
EXTT0=
EXTT1=
EXTT2=
EXTT3=
EXTT4=
EXTT5=
EXTT6=
EXTT7=
PLAYORDER=
